<svg width="100px" height="100px" viewBox="0 0 212 198" fill="none" xmlns="http://www.w3.org/2000/svg">
<path fill-rule="evenodd" clip-rule="evenodd" d="M125.037 11.2428C116.899 -3.74758 95.1008 -3.74758 86.9639 11.2428L2.64681 166.587C-7.09661 184.539 11.8291 204.435 30.6258 196.004L97.0566 166.198C102.738 163.649 109.262 163.649 114.943 166.198L181.373 196.004C200.17 204.435 219.097 184.539 209.353 166.587L125.037 11.2428ZM96.1934 131.007C100.552 138.449 111.447 138.449 115.806 131.007L134.756 98.6507C140.264 89.2443 130.284 78.4083 120.257 82.9072L110.689 87.1997C107.711 88.5368 104.289 88.5368 101.31 87.1997L91.742 82.9072C81.714 78.4083 71.7359 89.2443 77.2445 98.6507L96.1934 131.007Z" fill="#fff"/>




</svg>
