<?xml version="1.0" encoding="iso-8859-1"?>
<!-- Generator: Adobe Illustrator 19.0.0, SVG Export Plug-In . SVG Version: 6.00 Build 0)  -->
<svg version="1.1" id="Capa_1" xmlns="http://www.w3.org/2000/svg" xmlns:xlink="http://www.w3.org/1999/xlink" x="0px" y="0px"
	 viewBox="0 0 512 512" style="enable-background:new 0 0 512 512;" xml:space="preserve">
<path style="fill:#FF415B;" d="M150.956,363.095c-3.574,0-7.148-0.117-10.737-0.366c-43.872-3.047-84.565-24.858-111.65-59.854
	l23.73-18.369c22.163,28.652,54.126,45.806,90,48.296c35.347,2.329,70.298-10.327,95.566-34.995l20.977,21.445
	C229.999,347.436,191.166,363.095,150.956,363.095z"/>
<path style="fill:#FC0023;" d="M361,363.095c0,0,0,0-0.015,0c-48.179,0-92.798-21.958-122.402-60.22l23.73-18.369
	c23.877,30.879,59.854,48.589,98.687,48.589l0,0c38.833,0,74.81-17.71,98.701-48.589l24.73,18.369
	C454.813,341.137,409.193,363.095,361,363.095z"/>
<polygon style="fill:#495959;" points="421,241 91,241 119.5,182.5 151,181 256,151 361,181 384.101,174.099 "/>
<polygon style="fill:#323C3C;" points="384.101,174.099 421,241 256,241 256,151 361,181 "/>
<polygon style="fill:#495959;" points="421,0 385.3,65.7 361,60 256,90 151,60 92.5,31.5 91,0 "/>
<polygon style="fill:#323C3C;" points="361,60 256,90 256,0 421,0 385.3,65.7 "/>
<g>
	<polygon style="fill:#495959;" points="286,271 286,482 256,497 226,482 226,271 	"/>
	<polygon style="fill:#495959;" points="61,482 31,497 0,482 0,271 61,271 	"/>
</g>
<polygon style="fill:#323C3C;" points="512,482 482,497 451,482 451,271 512,271 "/>
<polygon style="fill:#495959;" points="361,181 421,241 421,0 361,60 331,125.967 "/>
<polygon style="fill:#738C96;" points="151,60 91,0 91,241 151,181 181,121 "/>
<rect x="151" y="60" style="fill:#FACBB9;" width="210" height="121"/>
<rect x="256" y="60" style="fill:#F7B094;" width="105" height="121"/>
<polygon style="fill:#323C3C;" points="256,271 286,271 286,482 256,497 "/>
<rect x="15" y="482" width="482" height="30"/>
<rect y="482" style="fill:#FACBB9;" width="512" height="30"/>
<rect x="256" y="482" style="fill:#F7B094;" width="256" height="30"/>
<g>
</g>
<g>
</g>
<g>
</g>
<g>
</g>
<g>
</g>
<g>
</g>
<g>
</g>
<g>
</g>
<g>
</g>
<g>
</g>
<g>
</g>
<g>
</g>
<g>
</g>
<g>
</g>
<g>
</g>
</svg>
